<?xml version="1.0" encoding="UTF-8" standalone="no"?>
<!-- Created with Inkscape (http://www.inkscape.org/) -->

<svg
   version="1.1"
   id="svg2"
   width="543.04401"
   height="208.53067"
   viewBox="0 0 543.04401 208.53067"
   sodipodi:docname="Logosdebase_laNewSchool.ai"
   xmlns:inkscape="http://www.inkscape.org/namespaces/inkscape"
   xmlns:sodipodi="http://sodipodi.sourceforge.net/DTD/sodipodi-0.dtd"
   xmlns="http://www.w3.org/2000/svg"
   xmlns:svg="http://www.w3.org/2000/svg">
  <defs
     id="defs6">
    <clipPath
       clipPathUnits="userSpaceOnUse"
       id="clipPath18">
      <path
         d="M 0,156.398 H 407.283 V 0 H 0 Z"
         id="path16" />
    </clipPath>
  </defs>
  <sodipodi:namedview
     id="namedview4"
     pagecolor="#ffffff"
     bordercolor="#000000"
     borderopacity="0.25"
     inkscape:showpageshadow="2"
     inkscape:pageopacity="0.0"
     inkscape:pagecheckerboard="0"
     inkscape:deskcolor="#d1d1d1" />
  <g
     id="g8"
     inkscape:groupmode="layer"
     inkscape:label="Logosdebase_laNewSchool"
     transform="matrix(1.3333333,0,0,-1.3333333,0,208.53067)">
    <path
       d="m 55.335,61.291 h -6.08 v 28.96 h 6.08 z"
       style="fill:#1d1d1b;fill-opacity:1;fill-rule:nonzero;stroke:none"
       id="path10" />
    <g
       id="g12">
      <g
         id="g14"
         clip-path="url(#clipPath18)">
        <g
           id="g20"
           transform="translate(65.6558,65.1311)">
          <path
             d="M 0,0 C 1.04,0 1.906,0.307 2.6,0.92 3.293,1.533 3.64,2.546 3.64,3.96 V 4.84 L -0.12,4.24 C -1.614,4 -2.36,3.267 -2.36,2.04 -2.36,1.48 -2.167,1 -1.78,0.6 -1.394,0.2 -0.8,0 0,0 m -8.36,1.64 c 0,1.68 0.547,3.033 1.64,4.06 1.093,1.027 2.507,1.673 4.24,1.94 L 2.2,8.36 c 0.96,0.133 1.44,0.586 1.44,1.36 0,0.613 -0.26,1.126 -0.78,1.54 -0.52,0.413 -1.234,0.62 -2.14,0.62 -1.013,0 -1.82,-0.287 -2.42,-0.86 -0.6,-0.574 -0.927,-1.26 -0.98,-2.06 l -5.28,1.08 c 0.133,1.653 0.953,3.167 2.46,4.54 1.506,1.373 3.593,2.06 6.26,2.06 3.013,0 5.233,-0.72 6.66,-2.16 1.426,-1.44 2.14,-3.28 2.14,-5.52 v -9.72 c 0,-1.254 0.08,-2.28 0.24,-3.08 H 4.32 c -0.133,0.533 -0.2,1.28 -0.2,2.24 -1.147,-1.867 -3.014,-2.8 -5.6,-2.8 -2.107,0 -3.78,0.593 -5.02,1.78 -1.24,1.186 -1.86,2.606 -1.86,4.26"
             style="fill:#1d1d1b;fill-opacity:1;fill-rule:nonzero;stroke:none"
             id="path22" />
        </g>
        <g
           id="g24"
           transform="translate(115.6118,61.2912)">
          <path
             d="M 0,0 H -9.629 L -26.464,26.868 V 0 h -9.053 v 40.878 h 11.071 L -9.11,16.028 v 24.85 H 0 Z"
             style="fill:#1d1d1b;fill-opacity:1;fill-rule:nonzero;stroke:none"
             id="path26" />
        </g>
        <g
           id="g28"
           transform="translate(127.3164,79.0495)">
          <path
             d="M 0,0 H 11.474 C 11.396,1.306 10.887,2.44 9.946,3.402 9.003,4.362 7.591,4.843 5.708,4.843 4.016,4.843 2.671,4.343 1.672,3.344 0.672,2.344 0.115,1.229 0,0 m 12.108,-7.438 7.322,-2.075 c -0.731,-2.653 -2.248,-4.835 -4.555,-6.545 -2.306,-1.709 -5.189,-2.565 -8.648,-2.565 -4.151,0 -7.679,1.384 -10.58,4.151 -2.903,2.767 -4.354,6.476 -4.354,11.128 0,4.458 1.413,8.091 4.238,10.897 2.825,2.805 6.178,4.209 10.061,4.209 4.459,0 7.966,-1.298 10.523,-3.892 2.555,-2.595 3.834,-6.198 3.834,-10.81 0,-1.462 -0.058,-2.365 -0.173,-2.71 H -0.173 c 0.076,-1.577 0.749,-2.893 2.018,-3.95 1.268,-1.058 2.767,-1.586 4.497,-1.586 2.959,0 4.881,1.249 5.766,3.748"
             style="fill:#1d1d1b;fill-opacity:1;fill-rule:nonzero;stroke:none"
             id="path30" />
        </g>
        <g
           id="g32"
           transform="translate(165.773,89.9465)">
          <path
             d="M 0,0 H 9.283 L 14.875,-17.009 19.661,0 h 8.591 l -8.879,-28.655 h -8.706 l -6.228,18.508 -6.111,-18.508 h -8.879 L -19.545,0 h 9.109 l 4.786,-16.951 z"
             style="fill:#1d1d1b;fill-opacity:1;fill-rule:nonzero;stroke:none"
             id="path34" />
        </g>
        <g
           id="g36"
           transform="translate(224.3521,92.1374)">
          <path
             d="m 0,0 -8.188,-2.306 c -0.192,1.268 -0.827,2.44 -1.902,3.517 -1.077,1.076 -2.71,1.614 -4.901,1.614 -1.654,0 -2.998,-0.432 -4.036,-1.297 -1.037,-0.865 -1.557,-1.894 -1.557,-3.085 0,-2.114 1.346,-3.421 4.036,-3.921 l 5.478,-1.037 c 3.766,-0.692 6.678,-2.162 8.735,-4.411 2.056,-2.248 3.084,-4.872 3.084,-7.87 0,-3.422 -1.364,-6.429 -4.094,-9.023 -2.729,-2.595 -6.399,-3.892 -11.011,-3.892 -5.152,0 -9.139,1.335 -11.964,4.007 -2.826,2.671 -4.411,5.698 -4.757,9.081 l 8.36,2.018 c 0.192,-2.038 0.989,-3.719 2.393,-5.045 1.402,-1.326 3.43,-1.989 6.083,-1.989 1.767,0 3.171,0.393 4.209,1.182 1.037,0.787 1.556,1.816 1.556,3.084 0,1.038 -0.384,1.912 -1.153,2.624 -0.769,0.71 -1.845,1.201 -3.228,1.47 l -5.593,1.038 c -3.46,0.653 -6.18,2.056 -8.159,4.209 -1.98,2.152 -2.969,4.746 -2.969,7.783 0,3.767 1.441,6.899 4.324,9.398 2.883,2.498 6.322,3.748 10.32,3.748 2.422,0 4.584,-0.337 6.487,-1.009 C -6.544,9.215 -5.036,8.321 -3.921,7.207 -2.807,6.092 -1.932,4.938 -1.298,3.748 -0.663,2.556 -0.23,1.306 0,0"
             style="fill:#1d1d1b;fill-opacity:1;fill-rule:nonzero;stroke:none"
             id="path38" />
        </g>
        <g
           id="g40"
           transform="translate(241.0152,82.7395)">
          <path
             d="m 0,0 c -1.884,0 -3.45,-0.634 -4.699,-1.903 -1.249,-1.268 -1.874,-3.017 -1.874,-5.246 0,-2.191 0.643,-3.921 1.931,-5.189 1.288,-1.269 2.873,-1.903 4.757,-1.903 1.575,0 2.873,0.412 3.892,1.24 1.018,0.826 1.701,1.834 2.047,3.026 l 7.726,-2.363 c -0.692,-2.73 -2.24,-5.074 -4.641,-7.035 -2.404,-1.96 -5.411,-2.94 -9.024,-2.94 -4.305,0 -7.947,1.432 -10.926,4.295 -2.979,2.863 -4.468,6.487 -4.468,10.869 0,4.42 1.45,8.062 4.353,10.925 2.902,2.864 6.487,4.296 10.753,4.296 3.728,0 6.783,-0.961 9.167,-2.883 2.383,-1.922 3.921,-4.286 4.612,-7.092 l -7.84,-2.364 c -0.346,1.23 -1,2.249 -1.96,3.056 C 2.844,-0.404 1.575,0 0,0"
             style="fill:#1d1d1b;fill-opacity:1;fill-rule:nonzero;stroke:none"
             id="path42" />
        </g>
        <g
           id="g44"
           transform="translate(266.0367,78.1272)">
          <path
             d="M 0,0 V -16.836 H -8.764 V 24.907 H 0 V 9.974 c 1.729,1.73 4.17,2.595 7.322,2.595 3.574,0 6.275,-1.067 8.101,-3.2 1.825,-2.133 2.739,-4.872 2.739,-8.216 V -16.836 H 9.397 v 16.49 c 0,1.499 -0.394,2.7 -1.181,3.603 C 7.428,4.16 6.265,4.612 4.728,4.612 3.382,4.612 2.277,4.18 1.412,3.315 0.548,2.45 0.076,1.345 0,0"
             style="fill:#1d1d1b;fill-opacity:1;fill-rule:nonzero;stroke:none"
             id="path46" />
        </g>
        <g
           id="g48"
           transform="translate(301.8413,68.4983)">
          <path
             d="m 0,0 c 1.806,0 3.334,0.614 4.584,1.845 1.248,1.23 1.873,2.998 1.873,5.304 0,2.307 -0.625,4.065 -1.873,5.276 -1.25,1.211 -2.778,1.816 -4.584,1.816 -1.769,0 -3.286,-0.615 -4.555,-1.845 -1.268,-1.23 -1.903,-2.979 -1.903,-5.247 0,-2.268 0.635,-4.026 1.903,-5.275 C -3.286,0.625 -1.769,0 0,0 m 0,22.313 c 4.343,0 7.965,-1.422 10.868,-4.267 2.901,-2.844 4.353,-6.477 4.353,-10.897 0,-4.42 -1.452,-8.063 -4.353,-10.925 C 7.965,-6.64 4.343,-8.072 0,-8.072 c -4.306,0 -7.919,1.442 -10.84,4.324 -2.921,2.883 -4.382,6.516 -4.382,10.897 0,4.382 1.461,8.005 4.382,10.869 2.921,2.863 6.534,4.295 10.84,4.295"
             style="fill:#1d1d1b;fill-opacity:1;fill-rule:nonzero;stroke:none"
             id="path50" />
        </g>
        <g
           id="g52"
           transform="translate(332.9746,68.4983)">
          <path
             d="m 0,0 c 1.806,0 3.334,0.614 4.584,1.845 1.248,1.23 1.873,2.998 1.873,5.304 0,2.307 -0.625,4.065 -1.873,5.276 -1.25,1.211 -2.778,1.816 -4.584,1.816 -1.769,0 -3.286,-0.615 -4.555,-1.845 -1.268,-1.23 -1.903,-2.979 -1.903,-5.247 0,-2.268 0.635,-4.026 1.903,-5.275 C -3.286,0.625 -1.769,0 0,0 m 0,22.313 c 4.343,0 7.966,-1.422 10.868,-4.267 2.902,-2.844 4.354,-6.477 4.354,-10.897 0,-4.42 -1.452,-8.063 -4.354,-10.925 C 7.966,-6.64 4.343,-8.072 0,-8.072 c -4.306,0 -7.919,1.442 -10.84,4.324 -2.921,2.883 -4.382,6.516 -4.382,10.897 0,4.382 1.461,8.005 4.382,10.869 2.921,2.863 6.534,4.295 10.84,4.295"
             style="fill:#1d1d1b;fill-opacity:1;fill-rule:nonzero;stroke:none"
             id="path54" />
        </g>
        <path
           d="m 359.728,61.291 h -8.764 v 41.743 h 8.764 z"
           style="fill:#1d1d1b;fill-opacity:1;fill-rule:nonzero;stroke:none"
           id="path56" />
      </g>
    </g>
  </g>
</svg>
