<?xml version="1.0" encoding="UTF-8" standalone="no"?>
<!-- Created with Inkscape (http://www.inkscape.org/) -->

<svg
   version="1.1"
   id="svg2"
   width="543.04401"
   height="208.53067"
   viewBox="0 0 543.04401 208.53067"
   sodipodi:docname="LogoavbaselinelaNewSchool.ai"
   xmlns:inkscape="http://www.inkscape.org/namespaces/inkscape"
   xmlns:sodipodi="http://sodipodi.sourceforge.net/DTD/sodipodi-0.dtd"
   xmlns="http://www.w3.org/2000/svg"
   xmlns:svg="http://www.w3.org/2000/svg">
  <defs
     id="defs6">
    <clipPath
       clipPathUnits="userSpaceOnUse"
       id="clipPath18">
      <path
         d="M 0,156.398 H 407.283 V 0 H 0 Z"
         id="path16" />
    </clipPath>
  </defs>
  <sodipodi:namedview
     id="namedview4"
     pagecolor="#ffffff"
     bordercolor="#000000"
     borderopacity="0.25"
     inkscape:showpageshadow="2"
     inkscape:pageopacity="0.0"
     inkscape:pagecheckerboard="0"
     inkscape:deskcolor="#d1d1d1" />
  <g
     id="g8"
     inkscape:groupmode="layer"
     inkscape:label="LogoavbaselinelaNewSchool"
     transform="matrix(1.3333333,0,0,-1.3333333,0,208.53067)">
    <path
       d="m 55.335,68.871 h -6.08 v 28.96 h 6.08 z"
       style="fill:#1d1d1b;fill-opacity:1;fill-rule:nonzero;stroke:none"
       id="path10" />
    <g
       id="g12">
      <g
         id="g14"
         clip-path="url(#clipPath18)">
        <g
           id="g20"
           transform="translate(65.6558,72.7111)">
          <path
             d="M 0,0 C 1.04,0 1.906,0.307 2.6,0.92 3.293,1.533 3.64,2.546 3.64,3.96 V 4.84 L -0.12,4.24 C -1.614,4 -2.36,3.267 -2.36,2.04 -2.36,1.48 -2.167,1 -1.78,0.6 -1.394,0.2 -0.8,0 0,0 m -8.36,1.64 c 0,1.68 0.547,3.033 1.64,4.06 1.093,1.027 2.507,1.673 4.24,1.94 L 2.2,8.36 c 0.96,0.133 1.44,0.586 1.44,1.36 0,0.613 -0.26,1.126 -0.78,1.54 -0.52,0.413 -1.234,0.62 -2.14,0.62 -1.013,0 -1.82,-0.287 -2.42,-0.86 -0.6,-0.574 -0.927,-1.26 -0.98,-2.06 l -5.28,1.08 c 0.133,1.653 0.953,3.167 2.46,4.54 1.506,1.373 3.593,2.06 6.26,2.06 3.013,0 5.233,-0.72 6.66,-2.16 1.426,-1.44 2.14,-3.28 2.14,-5.52 v -9.72 c 0,-1.254 0.08,-2.28 0.24,-3.08 H 4.32 c -0.133,0.533 -0.2,1.28 -0.2,2.24 -1.147,-1.867 -3.014,-2.8 -5.6,-2.8 -2.107,0 -3.78,0.593 -5.02,1.78 -1.24,1.186 -1.86,2.606 -1.86,4.26"
             style="fill:#1d1d1b;fill-opacity:1;fill-rule:nonzero;stroke:none"
             id="path22" />
        </g>
        <g
           id="g24"
           transform="translate(115.6118,68.8713)">
          <path
             d="M 0,0 H -9.629 L -26.464,26.868 V 0 h -9.053 v 40.878 h 11.071 L -9.11,16.028 v 24.85 H 0 Z"
             style="fill:#1d1d1b;fill-opacity:1;fill-rule:nonzero;stroke:none"
             id="path26" />
        </g>
        <g
           id="g28"
           transform="translate(127.3164,86.6296)">
          <path
             d="M 0,0 H 11.474 C 11.396,1.306 10.887,2.44 9.946,3.402 9.003,4.362 7.591,4.843 5.708,4.843 4.016,4.843 2.671,4.343 1.672,3.344 0.672,2.344 0.115,1.229 0,0 m 12.108,-7.438 7.322,-2.075 c -0.731,-2.653 -2.248,-4.835 -4.555,-6.545 -2.306,-1.709 -5.189,-2.565 -8.648,-2.565 -4.151,0 -7.679,1.384 -10.58,4.151 -2.903,2.767 -4.354,6.476 -4.354,11.128 0,4.458 1.413,8.091 4.238,10.897 2.825,2.805 6.178,4.209 10.061,4.209 4.459,0 7.966,-1.298 10.523,-3.892 2.555,-2.595 3.834,-6.198 3.834,-10.81 0,-1.462 -0.058,-2.365 -0.173,-2.71 H -0.173 c 0.076,-1.577 0.749,-2.893 2.018,-3.95 1.268,-1.058 2.767,-1.586 4.497,-1.586 2.959,0 4.881,1.249 5.766,3.748"
             style="fill:#1d1d1b;fill-opacity:1;fill-rule:nonzero;stroke:none"
             id="path30" />
        </g>
        <g
           id="g32"
           transform="translate(165.773,97.5266)">
          <path
             d="M 0,0 H 9.283 L 14.875,-17.009 19.661,0 h 8.591 l -8.879,-28.655 h -8.706 l -6.228,18.508 -6.111,-18.508 h -8.879 L -19.545,0 h 9.109 l 4.786,-16.951 z"
             style="fill:#1d1d1b;fill-opacity:1;fill-rule:nonzero;stroke:none"
             id="path34" />
        </g>
        <g
           id="g36"
           transform="translate(224.3521,99.7175)">
          <path
             d="m 0,0 -8.188,-2.306 c -0.192,1.268 -0.827,2.44 -1.902,3.517 -1.077,1.076 -2.71,1.614 -4.901,1.614 -1.654,0 -2.998,-0.432 -4.036,-1.297 -1.037,-0.865 -1.557,-1.894 -1.557,-3.085 0,-2.114 1.346,-3.421 4.036,-3.921 l 5.478,-1.037 c 3.766,-0.692 6.678,-2.162 8.735,-4.411 2.056,-2.248 3.084,-4.872 3.084,-7.87 0,-3.422 -1.364,-6.429 -4.094,-9.023 -2.729,-2.595 -6.399,-3.892 -11.011,-3.892 -5.152,0 -9.139,1.335 -11.964,4.007 -2.826,2.671 -4.411,5.698 -4.757,9.081 l 8.36,2.018 c 0.192,-2.038 0.989,-3.719 2.393,-5.045 1.402,-1.326 3.43,-1.989 6.083,-1.989 1.767,0 3.171,0.393 4.209,1.182 1.037,0.787 1.556,1.816 1.556,3.084 0,1.038 -0.384,1.912 -1.153,2.624 -0.769,0.71 -1.845,1.201 -3.228,1.47 l -5.593,1.038 c -3.46,0.653 -6.18,2.056 -8.159,4.209 -1.98,2.152 -2.969,4.746 -2.969,7.783 0,3.767 1.441,6.899 4.324,9.398 2.883,2.498 6.322,3.748 10.32,3.748 2.422,0 4.584,-0.337 6.487,-1.009 C -6.544,9.215 -5.036,8.321 -3.921,7.207 -2.807,6.092 -1.932,4.938 -1.298,3.748 -0.663,2.556 -0.23,1.306 0,0"
             style="fill:#1d1d1b;fill-opacity:1;fill-rule:nonzero;stroke:none"
             id="path38" />
        </g>
        <g
           id="g40"
           transform="translate(241.0152,90.3195)">
          <path
             d="m 0,0 c -1.884,0 -3.45,-0.634 -4.699,-1.903 -1.249,-1.268 -1.874,-3.017 -1.874,-5.246 0,-2.191 0.643,-3.921 1.931,-5.189 1.288,-1.269 2.873,-1.903 4.757,-1.903 1.575,0 2.873,0.412 3.892,1.24 1.018,0.826 1.701,1.834 2.047,3.026 l 7.726,-2.363 c -0.692,-2.73 -2.24,-5.074 -4.641,-7.035 -2.404,-1.96 -5.411,-2.94 -9.024,-2.94 -4.305,0 -7.947,1.432 -10.926,4.295 -2.979,2.863 -4.468,6.487 -4.468,10.869 0,4.42 1.45,8.062 4.353,10.925 2.902,2.864 6.487,4.296 10.753,4.296 3.728,0 6.783,-0.961 9.167,-2.883 2.383,-1.922 3.921,-4.286 4.612,-7.092 l -7.84,-2.364 c -0.346,1.23 -1,2.249 -1.96,3.056 C 2.844,-0.404 1.575,0 0,0"
             style="fill:#1d1d1b;fill-opacity:1;fill-rule:nonzero;stroke:none"
             id="path42" />
        </g>
        <g
           id="g44"
           transform="translate(266.0367,85.7072)">
          <path
             d="M 0,0 V -16.836 H -8.764 V 24.907 H 0 V 9.974 c 1.729,1.73 4.17,2.595 7.322,2.595 3.574,0 6.275,-1.067 8.101,-3.2 1.825,-2.133 2.739,-4.872 2.739,-8.216 V -16.836 H 9.397 v 16.49 c 0,1.499 -0.394,2.7 -1.181,3.603 C 7.428,4.16 6.265,4.612 4.728,4.612 3.382,4.612 2.277,4.18 1.412,3.315 0.548,2.45 0.076,1.345 0,0"
             style="fill:#1d1d1b;fill-opacity:1;fill-rule:nonzero;stroke:none"
             id="path46" />
        </g>
        <g
           id="g48"
           transform="translate(301.8413,76.0783)">
          <path
             d="m 0,0 c 1.806,0 3.334,0.614 4.584,1.845 1.248,1.23 1.873,2.998 1.873,5.304 0,2.307 -0.625,4.065 -1.873,5.276 -1.25,1.211 -2.778,1.816 -4.584,1.816 -1.769,0 -3.286,-0.615 -4.555,-1.845 -1.268,-1.23 -1.903,-2.979 -1.903,-5.247 0,-2.268 0.635,-4.026 1.903,-5.275 C -3.286,0.625 -1.769,0 0,0 m 0,22.313 c 4.343,0 7.965,-1.422 10.868,-4.267 2.901,-2.844 4.353,-6.477 4.353,-10.897 0,-4.42 -1.452,-8.063 -4.353,-10.925 C 7.965,-6.64 4.343,-8.072 0,-8.072 c -4.306,0 -7.919,1.442 -10.84,4.324 -2.921,2.883 -4.382,6.516 -4.382,10.897 0,4.382 1.461,8.005 4.382,10.869 2.921,2.863 6.534,4.295 10.84,4.295"
             style="fill:#1d1d1b;fill-opacity:1;fill-rule:nonzero;stroke:none"
             id="path50" />
        </g>
        <g
           id="g52"
           transform="translate(332.9746,76.0783)">
          <path
             d="m 0,0 c 1.806,0 3.334,0.614 4.584,1.845 1.248,1.23 1.873,2.998 1.873,5.304 0,2.307 -0.625,4.065 -1.873,5.276 -1.25,1.211 -2.778,1.816 -4.584,1.816 -1.769,0 -3.286,-0.615 -4.555,-1.845 -1.268,-1.23 -1.903,-2.979 -1.903,-5.247 0,-2.268 0.635,-4.026 1.903,-5.275 C -3.286,0.625 -1.769,0 0,0 m 0,22.313 c 4.343,0 7.966,-1.422 10.868,-4.267 2.902,-2.844 4.354,-6.477 4.354,-10.897 0,-4.42 -1.452,-8.063 -4.354,-10.925 C 7.966,-6.64 4.343,-8.072 0,-8.072 c -4.306,0 -7.919,1.442 -10.84,4.324 -2.921,2.883 -4.382,6.516 -4.382,10.897 0,4.382 1.461,8.005 4.382,10.869 2.921,2.863 6.534,4.295 10.84,4.295"
             style="fill:#1d1d1b;fill-opacity:1;fill-rule:nonzero;stroke:none"
             id="path54" />
        </g>
        <path
           d="m 359.728,68.871 h -8.764 v 41.743 h 8.764 z"
           style="fill:#1d1d1b;fill-opacity:1;fill-rule:nonzero;stroke:none"
           id="path56" />
        <g
           id="g58"
           transform="translate(128.7068,45.7833)">
          <path
             d="m 0,0 c -1.987,0 -3.656,0.653 -5.006,1.958 -1.35,1.306 -2.025,2.997 -2.025,5.073 0,2.064 0.681,3.761 2.044,5.092 1.363,1.331 3.012,1.997 4.949,1.997 0.967,0 1.843,-0.143 2.627,-0.43 C 3.372,13.403 4.005,13.024 4.49,12.553 4.974,12.081 5.362,11.598 5.655,11.101 5.948,10.604 6.152,10.088 6.267,9.553 L 3.42,8.655 C 3.356,8.923 3.254,9.187 3.114,9.448 2.974,9.709 2.776,9.977 2.522,10.251 2.267,10.525 1.916,10.747 1.471,10.92 c -0.446,0.172 -0.949,0.257 -1.509,0.257 -1.019,0 -1.917,-0.36 -2.695,-1.079 -0.776,-0.72 -1.165,-1.742 -1.165,-3.067 0,-1.223 0.382,-2.197 1.147,-2.923 C -1.987,3.382 -1.071,3.019 0,3.019 1.044,3.019 1.853,3.28 2.426,3.802 2.999,4.325 3.375,4.91 3.554,5.56 L 6.439,4.739 C 6.311,4.216 6.104,3.701 5.818,3.191 5.531,2.681 5.142,2.178 4.652,1.682 4.162,1.185 3.512,0.781 2.703,0.468 1.895,0.156 0.994,0 0,0"
             style="fill:#1d1d1b;fill-opacity:1;fill-rule:nonzero;stroke:none"
             id="path60" />
        </g>
        <g
           id="g62"
           transform="translate(140.1134,48.4585)">
          <path
             d="M 0,0 C 0.599,0 1.105,0.204 1.519,0.611 1.933,1.019 2.14,1.605 2.14,2.369 2.14,3.133 1.933,3.716 1.519,4.117 1.105,4.518 0.599,4.719 0,4.719 -0.586,4.719 -1.089,4.515 -1.51,4.108 -1.93,3.7 -2.14,3.121 -2.14,2.369 -2.14,1.618 -1.93,1.035 -1.51,0.621 -1.089,0.207 -0.586,0 0,0 M 0,7.394 C 1.439,7.394 2.639,6.923 3.601,5.98 4.563,5.038 5.044,3.834 5.044,2.369 5.044,0.904 4.563,-0.302 3.601,-1.252 2.639,-2.2 1.439,-2.675 0,-2.675 c -1.427,0 -2.624,0.478 -3.592,1.433 -0.968,0.955 -1.452,2.159 -1.452,3.611 0,1.452 0.484,2.652 1.452,3.602 0.968,0.948 2.165,1.423 3.592,1.423"
             style="fill:#1d1d1b;fill-opacity:1;fill-rule:nonzero;stroke:none"
             id="path64" />
        </g>
        <g
           id="g66"
           transform="translate(148.9786,46.0701)">
          <path
             d="m 0,0 h -2.904 v 9.496 h 2.77 v -1.09 c 0.23,0.409 0.608,0.739 1.137,0.994 0.529,0.255 1.06,0.383 1.595,0.383 1.363,0 2.3,-0.497 2.809,-1.491 0.688,0.994 1.669,1.491 2.943,1.491 0.993,0 1.827,-0.303 2.502,-0.908 0.676,-0.605 1.013,-1.513 1.013,-2.723 V 0 H 9.056 V 5.503 C 9.056,5.974 8.929,6.359 8.675,6.659 8.42,6.958 8.044,7.107 7.547,7.107 7.051,7.107 6.662,6.948 6.382,6.63 6.101,6.311 5.961,5.93 5.961,5.483 V 0 H 3.095 V 5.503 C 3.095,5.974 2.964,6.359 2.704,6.659 2.443,6.958 2.063,7.107 1.567,7.107 1.083,7.107 0.7,6.948 0.421,6.63 0.14,6.311 0,5.923 0,5.465 Z"
             style="fill:#1d1d1b;fill-opacity:1;fill-rule:nonzero;stroke:none"
             id="path68" />
        </g>
        <g
           id="g70"
           transform="translate(165.2372,46.0701)">
          <path
             d="m 0,0 h -2.904 v 9.496 h 2.77 v -1.09 c 0.23,0.409 0.608,0.739 1.137,0.994 0.529,0.255 1.06,0.383 1.595,0.383 1.363,0 2.3,-0.497 2.809,-1.491 0.688,0.994 1.669,1.491 2.943,1.491 0.993,0 1.827,-0.303 2.502,-0.908 0.676,-0.605 1.013,-1.513 1.013,-2.723 V 0 H 9.056 V 5.503 C 9.056,5.974 8.929,6.359 8.675,6.659 8.42,6.958 8.044,7.107 7.547,7.107 7.051,7.107 6.662,6.948 6.382,6.63 6.101,6.311 5.961,5.93 5.961,5.483 V 0 H 3.095 V 5.503 C 3.095,5.974 2.964,6.359 2.704,6.659 2.443,6.958 2.063,7.107 1.567,7.107 1.083,7.107 0.7,6.948 0.421,6.63 0.14,6.311 0,5.923 0,5.465 Z"
             style="fill:#1d1d1b;fill-opacity:1;fill-rule:nonzero;stroke:none"
             id="path72" />
        </g>
        <g
           id="g74"
           transform="translate(180.7899,51.9546)">
          <path
             d="M 0,0 H 3.802 C 3.776,0.433 3.607,0.809 3.296,1.127 2.984,1.446 2.515,1.605 1.892,1.605 1.331,1.605 0.885,1.44 0.554,1.109 0.222,0.777 0.038,0.408 0,0 M 4.012,-2.464 6.439,-3.153 C 6.197,-4.031 5.693,-4.754 4.929,-5.321 4.165,-5.888 3.21,-6.171 2.063,-6.171 c -1.375,0 -2.544,0.458 -3.506,1.376 -0.962,0.916 -1.442,2.145 -1.442,3.687 0,1.477 0.468,2.682 1.404,3.611 0.936,0.93 2.048,1.395 3.334,1.395 1.478,0 2.64,-0.43 3.487,-1.29 0.847,-0.86 1.271,-2.054 1.271,-3.582 0,-0.484 -0.019,-0.784 -0.058,-0.898 h -6.611 c 0.026,-0.523 0.249,-0.959 0.669,-1.309 0.421,-0.35 0.917,-0.525 1.49,-0.525 0.982,0 1.618,0.414 1.911,1.242"
             style="fill:#1d1d1b;fill-opacity:1;fill-rule:nonzero;stroke:none"
             id="path76" />
        </g>
        <g
           id="g78"
           transform="translate(194.3555,55.5658)">
          <path
             d="m 0,0 v -2.866 c -0.267,0.064 -0.574,0.096 -0.917,0.096 -0.65,0 -1.182,-0.211 -1.596,-0.631 -0.414,-0.42 -0.621,-1.07 -0.621,-1.949 V -9.496 H -6.038 V 0 h 2.809 v -1.28 c 0.229,0.484 0.579,0.835 1.051,1.051 0.471,0.217 0.942,0.325 1.414,0.325 C -0.472,0.096 -0.217,0.064 0,0"
             style="fill:#1d1d1b;fill-opacity:1;fill-rule:nonzero;stroke:none"
             id="path80" />
        </g>
        <g
           id="g82"
           transform="translate(199.4182,53.1775)">
          <path
             d="m 0,0 c -0.624,0 -1.143,-0.21 -1.556,-0.631 -0.415,-0.419 -0.622,-0.999 -0.622,-1.738 0,-0.726 0.213,-1.299 0.64,-1.72 0.427,-0.42 0.953,-0.63 1.577,-0.63 0.522,0 0.951,0.137 1.29,0.41 0.336,0.275 0.563,0.609 0.678,1.004 l 2.56,-0.784 C 4.337,-4.994 3.825,-5.77 3.029,-6.419 2.233,-7.069 1.235,-7.394 0.039,-7.394 c -1.427,0 -2.634,0.475 -3.621,1.423 -0.987,0.95 -1.481,2.15 -1.481,3.602 0,1.465 0.481,2.671 1.442,3.621 0.962,0.948 2.15,1.423 3.564,1.423 1.236,0 2.248,-0.319 3.038,-0.955 0.79,-0.637 1.3,-1.421 1.528,-2.351 L 1.911,-1.413 C 1.797,-1.006 1.58,-0.669 1.262,-0.401 0.943,-0.134 0.522,0 0,0"
             style="fill:#1d1d1b;fill-opacity:1;fill-rule:nonzero;stroke:none"
             id="path84" />
        </g>
        <path
           d="m 207.71,46.07 h -2.904 v 9.496 h 2.904 z m -2.655,11.197 c -0.332,0.33 -0.497,0.731 -0.497,1.203 0,0.471 0.165,0.873 0.497,1.204 0.331,0.331 0.726,0.497 1.184,0.497 0.472,0 0.876,-0.166 1.213,-0.497 0.338,-0.331 0.507,-0.733 0.507,-1.204 0,-0.472 -0.169,-0.873 -0.507,-1.203 -0.337,-0.332 -0.741,-0.497 -1.213,-0.497 -0.458,0 -0.853,0.165 -1.184,0.497"
           style="fill:#1d1d1b;fill-opacity:1;fill-rule:nonzero;stroke:none"
           id="path86" />
        <g
           id="g88"
           transform="translate(212.7164,47.9041)">
          <path
             d="m 0,0 c 0.497,0 0.91,0.146 1.242,0.44 0.331,0.292 0.496,0.777 0.496,1.452 v 0.42 L -0.058,2.025 C -0.771,1.911 -1.127,1.56 -1.127,0.975 -1.127,0.707 -1.036,0.478 -0.851,0.287 -0.666,0.096 -0.383,0 0,0 m -3.994,0.784 c 0,0.802 0.262,1.448 0.784,1.939 0.522,0.49 1.197,0.799 2.025,0.926 L 1.05,3.994 c 0.459,0.063 0.688,0.28 0.688,0.649 0,0.293 -0.124,0.538 -0.372,0.735 C 1.117,5.576 0.777,5.675 0.344,5.675 -0.141,5.675 -0.526,5.538 -0.812,5.264 -1.099,4.99 -1.255,4.662 -1.28,4.28 l -2.522,0.516 c 0.063,0.79 0.455,1.512 1.174,2.168 0.72,0.656 1.717,0.985 2.991,0.985 1.439,0 2.5,-0.344 3.181,-1.032 C 4.225,6.229 4.566,5.35 4.566,4.28 v -4.643 c 0,-0.599 0.039,-1.088 0.115,-1.471 H 2.063 C 2,-1.579 1.968,-1.223 1.968,-0.764 1.42,-1.656 0.528,-2.101 -0.707,-2.101 c -1.006,0 -1.806,0.283 -2.398,0.85 -0.593,0.566 -0.889,1.245 -0.889,2.035"
             style="fill:#1d1d1b;fill-opacity:1;fill-rule:nonzero;stroke:none"
             id="path90" />
        </g>
        <path
           d="m 221.677,46.07 h -2.904 v 13.833 h 2.904 z"
           style="fill:#1d1d1b;fill-opacity:1;fill-rule:nonzero;stroke:none"
           id="path92" />
        <g
           id="g94"
           transform="translate(238.9869,46.0701)">
          <path
             d="M 0,0 H -3.191 L -8.77,8.903 V 0 h -3 v 13.546 h 3.669 l 5.082,-8.235 v 8.235 H 0 Z"
             style="fill:#1d1d1b;fill-opacity:1;fill-rule:nonzero;stroke:none"
             id="path96" />
        </g>
        <g
           id="g98"
           transform="translate(242.8663,51.9546)">
          <path
             d="M 0,0 H 3.802 C 3.776,0.433 3.607,0.809 3.296,1.127 2.984,1.446 2.515,1.605 1.892,1.605 1.331,1.605 0.885,1.44 0.554,1.109 0.222,0.777 0.038,0.408 0,0 M 4.012,-2.464 6.439,-3.153 C 6.197,-4.031 5.693,-4.754 4.929,-5.321 4.165,-5.888 3.21,-6.171 2.063,-6.171 c -1.375,0 -2.544,0.458 -3.506,1.376 -0.962,0.916 -1.442,2.145 -1.442,3.687 0,1.477 0.468,2.682 1.404,3.611 0.936,0.93 2.048,1.395 3.334,1.395 1.478,0 2.64,-0.43 3.487,-1.29 0.847,-0.86 1.271,-2.054 1.271,-3.582 0,-0.484 -0.019,-0.784 -0.058,-0.898 h -6.611 c 0.026,-0.523 0.249,-0.959 0.669,-1.309 0.421,-0.35 0.917,-0.525 1.49,-0.525 0.982,0 1.618,0.414 1.911,1.242"
             style="fill:#1d1d1b;fill-opacity:1;fill-rule:nonzero;stroke:none"
             id="path100" />
        </g>
        <g
           id="g102"
           transform="translate(255.6102,55.5658)">
          <path
             d="M 0,0 H 3.076 L 4.929,-5.636 6.515,0 H 9.362 L 6.419,-9.496 H 3.534 L 1.471,-3.362 -0.554,-9.496 H -3.497 L -6.478,0 h 3.019 l 1.586,-5.617 z"
             style="fill:#1d1d1b;fill-opacity:1;fill-rule:nonzero;stroke:none"
             id="path104" />
        </g>
        <g
           id="g106"
           transform="translate(281.9576,46.0701)">
          <path
             d="M 0,0 H -2.446 L -2.637,1.375 C -2.968,0.904 -3.459,0.509 -4.108,0.191 c -0.65,-0.319 -1.427,-0.478 -2.331,-0.478 -1.936,0 -3.564,0.653 -4.882,1.958 -1.318,1.307 -1.977,3.004 -1.977,5.093 0,2.076 0.684,3.773 2.054,5.091 1.369,1.319 3.034,1.978 4.996,1.978 1.757,0 3.152,-0.414 4.184,-1.242 1.032,-0.828 1.726,-1.809 2.083,-2.942 L -2.885,8.636 c -0.141,0.574 -0.488,1.112 -1.042,1.615 -0.553,0.503 -1.328,0.754 -2.321,0.754 -1.044,0 -1.971,-0.359 -2.78,-1.079 -0.809,-0.72 -1.213,-1.774 -1.213,-3.162 0,-1.351 0.388,-2.405 1.165,-3.162 0.777,-0.758 1.745,-1.138 2.905,-1.138 0.993,0 1.77,0.24 2.33,0.717 0.561,0.478 0.898,0.978 1.013,1.5 h -4.069 v 2.56 H 0 Z"
             style="fill:#1d1d1b;fill-opacity:1;fill-rule:nonzero;stroke:none"
             id="path108" />
        </g>
        <g
           id="g110"
           transform="translate(285.5494,51.9546)">
          <path
             d="M 0,0 H 3.802 C 3.776,0.433 3.607,0.809 3.296,1.127 2.984,1.446 2.515,1.605 1.892,1.605 1.331,1.605 0.885,1.44 0.554,1.109 0.222,0.777 0.038,0.408 0,0 M 4.012,-2.464 6.439,-3.153 C 6.197,-4.031 5.693,-4.754 4.929,-5.321 4.165,-5.888 3.21,-6.171 2.063,-6.171 c -1.375,0 -2.544,0.458 -3.506,1.376 -0.962,0.916 -1.442,2.145 -1.442,3.687 0,1.477 0.468,2.682 1.404,3.611 0.936,0.93 2.048,1.395 3.334,1.395 1.478,0 2.64,-0.43 3.487,-1.29 0.847,-0.86 1.271,-2.054 1.271,-3.582 0,-0.484 -0.019,-0.784 -0.058,-0.898 h -6.611 c 0.026,-0.523 0.249,-0.959 0.669,-1.309 0.421,-0.35 0.917,-0.525 1.49,-0.525 0.982,0 1.618,0.414 1.911,1.242"
             style="fill:#1d1d1b;fill-opacity:1;fill-rule:nonzero;stroke:none"
             id="path112" />
        </g>
        <g
           id="g114"
           transform="translate(295.9811,51.5154)">
          <path
             d="M 0,0 V -5.445 H -2.904 V 4.05 h 2.808 V 2.961 C 0.146,3.382 0.519,3.71 1.022,3.946 1.525,4.181 2.038,4.299 2.56,4.299 3.694,4.299 4.553,3.946 5.14,3.239 5.725,2.531 6.019,1.624 6.019,0.516 V -5.445 H 3.114 v 5.464 c 0,0.497 -0.13,0.895 -0.391,1.195 C 2.461,1.513 2.076,1.662 1.567,1.662 1.095,1.662 0.717,1.506 0.43,1.194 0.143,0.882 0,0.484 0,0"
             style="fill:#1d1d1b;fill-opacity:1;fill-rule:nonzero;stroke:none"
             id="path116" />
        </g>
        <g
           id="g118"
           transform="translate(305.6867,51.9546)">
          <path
             d="M 0,0 H 3.802 C 3.776,0.433 3.607,0.809 3.296,1.127 2.984,1.446 2.515,1.605 1.892,1.605 1.331,1.605 0.885,1.44 0.554,1.109 0.222,0.777 0.038,0.408 0,0 M 4.012,-2.464 6.439,-3.153 C 6.197,-4.031 5.693,-4.754 4.929,-5.321 4.165,-5.888 3.21,-6.171 2.063,-6.171 c -1.375,0 -2.544,0.458 -3.506,1.376 -0.962,0.916 -1.442,2.145 -1.442,3.687 0,1.477 0.468,2.682 1.404,3.611 0.936,0.93 2.048,1.395 3.334,1.395 1.478,0 2.64,-0.43 3.487,-1.29 0.847,-0.86 1.271,-2.054 1.271,-3.582 0,-0.484 -0.019,-0.784 -0.058,-0.898 h -6.611 c 0.026,-0.523 0.249,-0.959 0.669,-1.309 0.421,-0.35 0.917,-0.525 1.49,-0.525 0.982,0 1.618,0.414 1.911,1.242"
             style="fill:#1d1d1b;fill-opacity:1;fill-rule:nonzero;stroke:none"
             id="path120" />
        </g>
        <g
           id="g122"
           transform="translate(319.2523,55.5658)">
          <path
             d="m 0,0 v -2.866 c -0.267,0.064 -0.574,0.096 -0.917,0.096 -0.65,0 -1.182,-0.211 -1.596,-0.631 -0.414,-0.42 -0.621,-1.07 -0.621,-1.949 V -9.496 H -6.038 V 0 h 2.809 v -1.28 c 0.229,0.484 0.579,0.835 1.051,1.051 0.471,0.217 0.942,0.325 1.414,0.325 C -0.472,0.096 -0.217,0.064 0,0"
             style="fill:#1d1d1b;fill-opacity:1;fill-rule:nonzero;stroke:none"
             id="path124" />
        </g>
        <g
           id="g126"
           transform="translate(323.5508,47.9041)">
          <path
             d="m 0,0 c 0.497,0 0.91,0.146 1.242,0.44 0.331,0.292 0.496,0.777 0.496,1.452 v 0.42 L -0.058,2.025 C -0.771,1.911 -1.127,1.56 -1.127,0.975 -1.127,0.707 -1.036,0.478 -0.851,0.287 -0.666,0.096 -0.383,0 0,0 m -3.994,0.784 c 0,0.802 0.262,1.448 0.784,1.939 0.522,0.49 1.197,0.799 2.025,0.926 L 1.05,3.994 c 0.459,0.063 0.688,0.28 0.688,0.649 0,0.293 -0.124,0.538 -0.372,0.735 C 1.117,5.576 0.777,5.675 0.344,5.675 -0.141,5.675 -0.526,5.538 -0.812,5.264 -1.099,4.99 -1.255,4.662 -1.28,4.28 l -2.522,0.516 c 0.063,0.79 0.455,1.512 1.174,2.168 0.72,0.656 1.717,0.985 2.991,0.985 1.439,0 2.5,-0.344 3.181,-1.032 C 4.225,6.229 4.566,5.35 4.566,4.28 v -4.643 c 0,-0.599 0.039,-1.088 0.115,-1.471 H 2.063 C 2,-1.579 1.968,-1.223 1.968,-0.764 1.42,-1.656 0.528,-2.101 -0.707,-2.101 c -1.006,0 -1.806,0.283 -2.398,0.85 -0.593,0.566 -0.889,1.245 -0.889,2.035"
             style="fill:#1d1d1b;fill-opacity:1;fill-rule:nonzero;stroke:none"
             id="path128" />
        </g>
        <g
           id="g130"
           transform="translate(332.9889,58.3366)">
          <path
             d="m 0,0 v -2.771 h 1.853 v -2.54 H 0 v -3.554 c 0,-0.663 0.351,-0.994 1.051,-0.994 0.229,0 0.484,0.031 0.764,0.095 v -2.407 c -0.357,-0.178 -0.86,-0.267 -1.509,-0.267 -0.981,0 -1.755,0.273 -2.321,0.821 -0.568,0.548 -0.851,1.293 -0.851,2.236 v 4.07 h -1.681 v 2.54 h 0.478 c 0.483,0 0.85,0.144 1.098,0.43 0.248,0.287 0.373,0.659 0.373,1.118 l 0,1.223 z"
             style="fill:#1d1d1b;fill-opacity:1;fill-rule:nonzero;stroke:none"
             id="path132" />
        </g>
        <path
           d="m 338.855,46.07 h -2.904 v 9.496 h 2.904 z m -2.656,11.197 c -0.331,0.33 -0.497,0.731 -0.497,1.203 0,0.471 0.166,0.873 0.497,1.204 0.331,0.331 0.726,0.497 1.185,0.497 0.471,0 0.875,-0.166 1.213,-0.497 0.337,-0.331 0.507,-0.733 0.507,-1.204 0,-0.472 -0.17,-0.873 -0.507,-1.203 -0.338,-0.332 -0.742,-0.497 -1.213,-0.497 -0.459,0 -0.854,0.165 -1.185,0.497"
           style="fill:#1d1d1b;fill-opacity:1;fill-rule:nonzero;stroke:none"
           id="path134" />
        <g
           id="g136"
           transform="translate(344.7967,48.4585)">
          <path
             d="m 0,0 c 0.599,0 1.105,0.204 1.519,0.611 0.414,0.408 0.62,0.994 0.62,1.758 0,0.764 -0.206,1.347 -0.62,1.748 C 1.105,4.518 0.599,4.719 0,4.719 -0.586,4.719 -1.089,4.515 -1.51,4.108 -1.93,3.7 -2.14,3.121 -2.14,2.369 -2.14,1.618 -1.93,1.035 -1.51,0.621 -1.089,0.207 -0.586,0 0,0 M 0,7.394 C 1.439,7.394 2.639,6.923 3.601,5.98 4.563,5.038 5.044,3.834 5.044,2.369 5.044,0.904 4.563,-0.302 3.601,-1.252 2.639,-2.2 1.439,-2.675 0,-2.675 c -1.427,0 -2.624,0.478 -3.592,1.433 -0.968,0.955 -1.452,2.159 -1.452,3.611 0,1.452 0.484,2.652 1.452,3.602 0.968,0.948 2.165,1.423 3.592,1.423"
             style="fill:#1d1d1b;fill-opacity:1;fill-rule:nonzero;stroke:none"
             id="path138" />
        </g>
        <g
           id="g140"
           transform="translate(353.6619,51.5154)">
          <path
             d="M 0,0 V -5.445 H -2.904 V 4.05 h 2.808 V 2.961 C 0.146,3.382 0.519,3.71 1.022,3.946 1.525,4.181 2.038,4.299 2.562,4.299 3.694,4.299 4.555,3.946 5.14,3.239 5.724,2.531 6.02,1.624 6.02,0.516 V -5.445 H 3.115 v 5.464 c 0,0.497 -0.13,0.895 -0.392,1.195 C 2.462,1.513 2.076,1.662 1.567,1.662 1.095,1.662 0.717,1.506 0.43,1.194 0.143,0.882 0,0.484 0,0"
             style="fill:#1d1d1b;fill-opacity:1;fill-rule:nonzero;stroke:none"
             id="path142" />
        </g>
      </g>
    </g>
  </g>
</svg>
